<?xml version="1.0" ?><svg enable-background="new 0 0 64 64" id="FO_00000068645308647629825500000001391242282340690576_" version="1.1" viewBox="0 0 64 64" xml:space="preserve" xmlns="http://www.w3.org/2000/svg" xmlns:xlink="http://www.w3.org/1999/xlink"><g><g><path d="M38,59c-1.7,0-3-2.7-3-6h-6c0,3.3-1.3,6-3,6v2h12L38,59z" fill="#687FBF"/><rect fill="#E6E6E6" height="38" transform="matrix(-1 -1.224647e-16 1.224647e-16 -1 64 60)" width="10" x="27" y="11"/><path d="M27,49h10v4H27V49z M37,49h7v-5l-7-7V49z M27,37l-7,7v5h7V37z M37,11L32,1l-5,10H37z M37,27H27v4h10V27z     M27,17l-4,4v6h4V17z M37,27h4v-6l-4-4V27z" fill="#D92B3A"/><path d="M58,63c0-2.2-1.8-4-4-4c-1.1,0-2,0.4-2.7,1.1c-1-1.8-3-3.1-5.3-3.1s-4.2,1.3-5.3,3.1    C40,59.4,39.1,59,38,59c-1.2,0-2.3,0.5-3,1.4c-0.7-0.8-1.8-1.4-3-1.4c-1.2,0-2.3,0.5-3,1.4c-0.7-0.8-1.8-1.4-3-1.4    c-1.1,0-2,0.4-2.7,1.1c-1-1.8-3-3.1-5.3-3.1s-4.2,1.3-5.3,3.1C12,59.4,11.1,59,10,59c-2.2,0-4,1.8-4,4H58z" fill="#8BA9FF"/></g><path d="M54,58c-0.9,0-1.7,0.2-2.5,0.7C50.2,57,48.2,56,46,56s-4.2,1-5.5,2.7c-0.7-0.4-1.5-0.6-2.3-0.6   c-0.1,0-0.1,0-0.2,0c-0.7,0-1.7-1.5-2-4h1c0.6,0,1-0.4,1-1v-3h6c0.6,0,1-0.4,1-1v-5c0-0.3-0.1-0.5-0.3-0.7L38,36.6V28h3   c0.6,0,1-0.4,1-1v-6c0-0.3-0.1-0.5-0.3-0.7L38,16.6V11c0-0.2,0-0.3-0.1-0.4l-5-10c-0.3-0.7-1.5-0.7-1.8,0l-5,10   C26,10.7,26,10.8,26,11v5.6l-3.7,3.7C22.1,20.5,22,20.7,22,21v6c0,0.6,0.4,1,1,1h3v8.6l-6.7,6.7C19.1,43.5,19,43.7,19,44v5   c0,0.6,0.4,1,1,1h6v3c0,0.6,0.4,1,1,1h1c-0.2,2.5-1.2,4-2,4c-0.1,0-0.1,0-0.2,0c-0.8,0-1.6,0.2-2.3,0.6C22.2,57,20.2,56,18,56   s-4.2,1-5.5,2.7C11.7,58.2,10.9,58,10,58c-2.8,0-5,2.2-5,5c0,0.6,0.4,1,1,1s1-0.4,1-1c0-1.7,1.3-3,3-3c0.8,0,1.5,0.3,2.1,0.8   c0.2,0.2,0.5,0.3,0.8,0.3c0.3,0,0.6-0.2,0.7-0.5C14.5,59,16.2,58,18,58s3.5,1,4.4,2.6c0.1,0.3,0.4,0.5,0.7,0.5c0.3,0,0.6,0,0.8-0.3   c0.6-0.5,1.3-0.8,2.1-0.8c0.9,0,1.7,0.4,2.2,1c0.4,0.4,1.1,0.4,1.5,0c1.2-1.3,3.3-1.3,4.5,0c0.4,0.4,1.1,0.4,1.5,0   c0.6-0.7,1.4-1,2.2-1c0.8,0,1.5,0.3,2.1,0.8c0.2,0.2,0.5,0.3,0.8,0.3c0.3,0,0.6-0.2,0.7-0.5C42.5,59,44.2,58,46,58s3.5,1,4.4,2.6   c0.1,0.3,0.4,0.5,0.7,0.5c0.3,0,0.6,0,0.8-0.3c0.6-0.5,1.3-0.8,2.1-0.8c1.7,0,3,1.3,3,3c0,0.6,0.4,1,1,1s1-0.4,1-1   C59,60.2,56.8,58,54,58z M28,52v-2h8v2H28z M36,12v14h-3v-9c0-0.6-0.4-1-1-1s-1,0.4-1,1v9h-3V12H36z M28,28h8v2h-8V28z M36,32v16   h-3V37c0-0.6-0.4-1-1-1s-1,0.4-1,1v11h-3V32H36z M43,44.4V48h-5v-8.6L43,44.4z M40,21.4V26h-2v-6.6L40,21.4z M32,3.2l3.4,6.8h-6.8   L32,3.2z M24,21.4l2-2V26h-2V21.4z M21,44.4l5-5V48h-5V44.4z M29,59c-0.2-0.1-0.4-0.3-0.6-0.4c0.8-1.1,1.4-2.7,1.5-4.6H34   c0.1,1.9,0.7,3.6,1.5,4.6c-0.2,0.1-0.4,0.2-0.6,0.4C33.3,57.7,30.7,57.7,29,59z" fill="#333333"/></g></svg>