<svg xmlns="http://www.w3.org/2000/svg" viewBox="0 0 120 120" height="120.000000pt" width="120.000000pt"><g xmlns="http://www.w3.org/2000/svg" transform="matrix(-1 0 0 -1 120 120)"><g transform="translate(0.000000,120.000000) scale(0.100000,-0.100000)" fill="#000000" stroke="none"><path d="M148 1188 c-5 -13 -5 -44 2 -163 2 -42 5 -57 7 -37 l4 33 71 -2 c50 -1 73 2 79 12 7 9 8 5 3 -14 -5 -23 -3 -26 10 -21 9 4 16 3 15 -2 -5 -28 2 -31 41 -20 24 6 39 15 36 22 -3 7 10 15 32 20 l37 8 -32 5 c-25 5 -30 9 -23 20 7 12 11 12 23 2 9 -7 18 -8 21 -3 9 15 -5 22 -43 23 -23 1 -28 3 -13 6 12 2 22 8 22 13 0 5 6 7 14 4 9 -3 17 3 21 16 6 19 12 21 43 16 l37 -5 -40 19 c-29 13 -75 21 -158 26 -88 5 -117 10 -117 20 0 18 -86 19 -92 2z m95 -48 c3 -11 1 -23 -5 -26 -5 -3 -7 -12 -4 -20 4 -11 -4 -14 -34 -14 -22 0 -40 3 -41 8 -1 4 -2 22 -4 40 -3 32 -2 32 40 32 34 0 44 -4 48 -20z m-50 -77 c-7 -2 -19 -2 -25 0 -7 3 -2 5 12 5 14 0 19 -2 13 -5z m87 -23 c8 -5 11 -10 5 -10 -5 0 -17 5 -25 10 -8 5 -10 10 -5 10 6 0 17 -5 25 -10z" /><path d="M28 603 c-2 -307 -1 -568 1 -580 3 -23 5 -23 155 -21 l151 2 -147 3 c-211 5 -191 23 25 23 153 0 184 3 277 26 58 15 107 29 110 31 8 7 -24 23 -37 18 -7 -2 -10 2 -7 9 3 7 -2 16 -12 20 -11 4 -15 2 -11 -7 3 -9 -4 -12 -29 -9 -52 6 -43 29 13 30 25 1 51 6 57 12 17 17 2 20 -42 8 -58 -14 -75 1 -39 35 19 17 34 22 57 19 16 -2 27 -8 24 -13 -3 -5 0 -9 5 -9 6 0 11 -6 11 -13 0 -8 10 -13 23 -13 16 1 23 -5 25 -21 5 -32 29 -29 115 15 141 73 366 264 394 334 10 25 22 38 34 38 16 0 19 8 19 55 0 43 -3 53 -14 49 -10 -4 -20 6 -29 29 -15 35 -141 163 -232 234 -134 106 -282 189 -282 159 0 -7 7 -11 16 -9 9 2 25 -3 36 -11 20 -16 20 -16 -4 -34 -20 -16 -22 -22 -12 -40 7 -12 20 -22 30 -22 10 0 24 -7 31 -15 15 -18 -1 -20 -18 -3 -8 8 -15 8 -28 -3 -11 -9 -15 -9 -10 -2 5 10 -1 11 -26 6 -18 -3 -36 -10 -39 -16 -9 -13 -20 8 -13 26 8 21 -17 33 -28 13 -5 -9 -19 -16 -31 -16 -20 -1 -21 -2 -4 -14 24 -19 22 -21 -23 -23 -26 -2 -40 2 -40 10 0 8 -3 7 -9 -2 -8 -12 -41 -15 -160 -15 l-151 -1 -1 30 -2 30 -4 -30 c-3 -16 -9 -32 -13 -35 -5 -3 -11 -18 -14 -34 -6 -34 -21 -46 -58 -46 -26 0 -28 3 -28 40 l0 40 46 0 c40 0 45 2 39 18 -4 9 -8 23 -8 30 0 6 -4 12 -8 12 -4 0 -5 9 -2 21 4 16 8 17 14 7 7 -10 9 -9 9 3 0 9 -7 22 -16 30 -13 11 -14 13 0 21 11 6 15 25 14 68 l-1 60 -48 0 -48 0 -3 -557z m79 485 c-3 -7 -5 -2 -5 12 0 14 2 19 5 13 2 -7 2 -19 0 -25z m13 -38 c0 -5 -5 -10 -11 -10 -5 0 -7 5 -4 10 3 6 8 10 11 10 2 0 4 -4 4 -10z m630 -40 c13 -9 12 -12 -4 -25 -13 -10 -15 -15 -6 -15 7 0 11 -3 8 -6 -7 -7 -48 18 -48 28 0 5 7 8 16 8 8 0 12 5 9 10 -8 13 6 13 25 0z m-340 -161 c9 -31 9 -44 0 -53 -8 -8 -14 -6 -21 7 -7 11 -17 16 -29 12 -35 -11 -50 51 -16 65 43 17 55 12 66 -31z m432 4 c35 -21 68 -43 75 -49 7 -7 37 -20 68 -29 38 -12 55 -23 55 -34 0 -31 -18 -39 -62 -28 -31 8 -42 7 -48 -3 -11 -18 -39 -5 -49 23 -5 12 -39 42 -75 66 -36 23 -66 46 -66 51 0 8 28 40 35 40 2 0 32 -17 67 -37z m-452 -147 c-7 -7 -13 -7 -20 0 -6 6 -3 10 10 10 13 0 16 -4 10 -10z m270 -16 c6 -12 10 -35 8 -52 -2 -25 -9 -33 -30 -39 -21 -5 -25 -4 -21 8 5 12 1 14 -18 9 -13 -3 -18 -3 -11 0 6 3 12 23 12 45 0 22 4 38 9 34 5 -3 12 -1 16 5 10 16 23 12 35 -10z m-425 -19 c3 -5 1 -12 -5 -16 -5 -3 -10 -18 -10 -33 0 -20 -3 -23 -9 -12 -6 8 -7 18 -5 22 3 4 1 8 -4 8 -6 0 -8 9 -5 20 6 21 28 27 38 11z m175 -131 c0 -17 -3 -19 -19 -8 -21 13 -19 28 5 28 8 0 14 -9 14 -20z m340 -56 c0 -23 -28 -22 -50 1 -19 21 -21 27 -10 40 12 14 15 13 37 -6 12 -13 23 -28 23 -35z m-82 8 c2 -7 -6 -12 -17 -12 -12 0 -21 -5 -21 -12 0 -6 -3 -9 -6 -6 -3 4 0 16 6 28 12 22 31 23 38 2z m337 8 c3 -5 17 -10 31 -10 31 0 30 -8 -7 -53 -30 -36 -32 -37 -55 -23 -22 15 -25 14 -69 -19 -25 -19 -49 -35 -54 -35 -5 0 -11 -7 -15 -15 -3 -8 0 -15 7 -15 7 0 18 -4 26 -9 12 -8 12 -12 -3 -26 -20 -20 -53 -14 -87 15 -23 20 -24 21 -4 33 10 7 44 35 75 63 112 102 140 119 155 94z m-825 -24 c0 -3 -4 -8 -10 -11 -5 -3 -10 -1 -10 4 0 6 5 11 10 11 6 0 10 -2 10 -4z m40 -14 c0 -4 -10 -9 -22 -9 -18 -2 -20 0 -8 7 18 12 30 13 30 2z m-20 -52 c0 -5 -2 -10 -4 -10 -3 0 -8 5 -11 10 -3 6 -1 10 4 10 6 0 11 -4 11 -10z m560 -45 c-7 -8 -17 -15 -22 -15 -6 0 -5 7 2 15 7 8 17 15 22 15 6 0 5 -7 -2 -15z m-627 -28 c6 6 11 -35 8 -63 -2 -17 14 -20 99 -19 49 0 74 4 73 11 -1 7 8 9 24 6 19 -4 24 -2 18 8 -6 10 0 11 26 7 19 -4 68 -7 109 -8 41 -1 69 -4 62 -6 -6 -3 -10 -9 -7 -13 3 -5 12 -7 19 -4 8 3 17 1 20 -5 10 -15 -31 -24 -54 -11 -11 6 -20 7 -20 1 0 -5 -12 -12 -26 -15 -15 -4 -24 -10 -20 -13 3 -3 -4 -21 -15 -40 -11 -18 -16 -33 -10 -33 6 0 11 -4 11 -9 0 -5 -9 -7 -20 -4 -20 5 -28 23 -10 23 18 0 11 20 -7 21 -13 0 -11 3 7 11 25 11 25 12 3 15 -18 4 -20 7 -10 18 6 7 15 11 20 8 4 -2 7 0 7 6 0 21 -45 16 -67 -8 -25 -27 -28 -24 -13 13 7 19 6 26 -3 26 -23 0 -40 -18 -34 -35 8 -18 -30 -75 -49 -75 -7 0 -20 -8 -30 -17 -16 -16 -18 -15 -38 10 -57 72 -67 88 -61 97 3 5 2 10 -4 10 -5 0 -13 9 -16 21 -5 15 -13 19 -29 15 -23 -6 -24 1 -17 67 1 4 11 1 24 -8 13 -8 27 -12 30 -8z m-78 -37 c3 -5 1 -10 -4 -10 -6 0 -11 5 -11 10 0 6 2 10 4 10 3 0 8 -4 11 -10z m575 -20 c0 -5 -5 -10 -11 -10 -5 0 -7 5 -4 10 3 6 8 10 11 10 2 0 4 -4 4 -10z m116 -21 c32 -17 61 -33 62 -34 7 -6 -75 -56 -106 -65 -29 -8 -31 -7 -22 10 6 11 16 17 23 14 7 -2 13 3 13 14 0 16 -4 17 -28 8 -15 -6 -28 -16 -28 -23 0 -15 -16 -17 -25 -3 -3 5 5 15 19 21 23 11 24 13 11 33 -19 26 -19 36 0 36 8 0 15 5 15 10 0 14 0 14 66 -21z m-359 -74 c0 -8 -4 -12 -9 -9 -4 3 -8 9 -8 15 0 5 4 9 8 9 5 0 9 -7 9 -15z m-187 -80 c11 -13 4 -15 -51 -15 -71 0 -109 8 -109 21 0 5 33 9 74 9 53 0 77 -4 86 -15z" /><path d="M465 260 c3 -5 11 -10 16 -10 6 0 7 5 4 10 -3 6 -11 10 -16 10 -6 0 -7 -4 -4 -10z" /><path d="M510 1095 c0 -8 5 -15 10 -15 6 0 10 7 10 15 0 8 -4 15 -10 15 -5 0 -10 -7 -10 -15z" /><path d="M590 1095 c7 -8 17 -15 22 -15 5 0 3 7 -6 15 -8 8 -18 15 -22 15 -3 0 -1 -7 6 -15z" /><path d="M533 1053 c9 -2 25 -2 35 0 9 3 1 5 -18 5 -19 0 -27 -2 -17 -5z" /><path d="M490 1030 c0 -5 7 -10 15 -10 8 0 15 5 15 10 0 6 -7 10 -15 10 -8 0 -15 -4 -15 -10z" /><path d="M645 1030 c4 -6 11 -8 16 -5 14 9 11 15 -7 15 -8 0 -12 -5 -9 -10z" /><path d="M576 1004 c-10 -26 0 -28 23 -5 20 20 20 21 2 21 -10 0 -22 -7 -25 -16z" /><path d="M538 993 c7 -3 16 -2 19 1 4 3 -2 6 -13 5 -11 0 -14 -3 -6 -6z" /><path d="M610 980 c0 -5 5 -10 10 -10 6 0 10 5 10 10 0 6 -4 10 -10 10 -5 0 -10 -4 -10 -10z" /><path d="M470 939 c0 -5 5 -7 10 -4 6 3 10 8 10 11 0 2 -4 4 -10 4 -5 0 -10 -5 -10 -11z" /><path d="M345 930 c4 -6 11 -8 16 -5 14 9 11 15 -7 15 -8 0 -12 -5 -9 -10z" /><path d="M2 545 c0 -16 2 -22 5 -12 2 9 2 23 0 30 -3 6 -5 -1 -5 -18z" /><path d="M2 445 c0 -16 2 -22 5 -12 2 9 2 23 0 30 -3 6 -5 -1 -5 -18z" /><path d="M3 360 c0 -30 2 -43 4 -27 2 15 2 39 0 55 -2 15 -4 2 -4 -28z" /><path d="M3 200 c0 -25 2 -35 4 -22 2 12 2 32 0 45 -2 12 -4 2 -4 -23z" /><path d="M2 60 c0 -19 2 -27 5 -17 2 9 2 25 0 35 -3 9 -5 1 -5 -18z" /></g></g></svg>