<!-- icon666.com - MILLIONS OF FREE VECTOR ICONS -->
<svg version="1.1" id="Capa_1" xmlns="http://www.w3.org/2000/svg"
    xmlns:xlink="http://www.w3.org/1999/xlink" x="0px" y="0px" viewBox="0 0 512 512"
    style="enable-background:new 0 0 512 512;" xml:space="preserve">
    <path style="fill:#BFBFBF;"
        d="M363.213,0H148.787L0,148.787v214.427L148.787,512h214.427L512,363.213V148.787L363.213,0z M256,340 c-46.318,0-84-37.682-84-84s37.682-84,84-84s84,37.682,84,84S302.318,340,256,340z" />
    <path style="fill:#A3A3A3;"
        d="M363.213,0H256v172c46.318,0,84,37.682,84,84s-37.682,84-84,84v172h107.213L512,363.213V148.787 L363.213,0z" />
    <path style="fill:#8F8F8F;"
        d="M256,82c-95.944,0-174,78.056-174,174s78.056,174,174,174s174-78.056,174-174S351.944,82,256,82z M256,340c-46.318,0-84-37.682-84-84s37.682-84,84-84s84,37.682,84,84S302.318,340,256,340z" />
    <path style="fill:#606060;"
        d="M340,256c0,46.318-37.682,84-84,84v90c95.944,0,174-78.056,174-174S351.944,82,256,82v90 C302.318,172,340,209.682,340,256z" />
    <path style="fill:#E8E8E8;"
        d="M256,370c-62.86,0-114-51.14-114-114s51.14-114,114-114s114,51.14,114,114S318.86,370,256,370z M256,172c-46.318,0-84,37.682-84,84s37.682,84,84,84s84-37.682,84-84S302.318,172,256,172z" />
    <path style="fill:#BFBFBF;"
        d="M340,256c0,46.318-37.682,84-84,84v30c62.86,0,114-51.14,114-114s-51.14-114-114-114v30 C302.318,172,340,209.682,340,256z" />
</svg>