<?xml version="1.0" encoding="UTF-8" standalone="no"?>
<!-- Created with Inkscape (http://www.inkscape.org/) -->

<svg
   width="64pt"
   height="64pt"
   viewBox="0 0 22.577778 22.577778"
   version="1.1"
   id="svg831"
   inkscape:version="1.1.1 (3bf5ae0d25, 2021-09-20)"
   sodipodi:docname="Export - Unblash - 64px.svg"
   inkscape:export-filename="C:\Users\User\Desktop\CARLOS PROJECT\6. JUNI 2\DONE\FLAT\01 - Tanker.png"
   inkscape:export-xdpi="576"
   inkscape:export-ydpi="576"
   xmlns:inkscape="http://www.inkscape.org/namespaces/inkscape"
   xmlns:sodipodi="http://sodipodi.sourceforge.net/DTD/sodipodi-0.dtd"
   xmlns="http://www.w3.org/2000/svg"
   xmlns:svg="http://www.w3.org/2000/svg"
   xmlns:rdf="http://www.w3.org/1999/02/22-rdf-syntax-ns#"
   xmlns:cc="http://creativecommons.org/ns#"
   xmlns:dc="http://purl.org/dc/elements/1.1/">
  <defs
     id="defs825">
    <pattern
       id="EMFhbasepattern"
       patternUnits="userSpaceOnUse"
       width="6"
       height="6"
       x="0"
       y="0" />
    <pattern
       id="EMFhbasepattern-9"
       patternUnits="userSpaceOnUse"
       width="6"
       height="6"
       x="0"
       y="0" />
    <pattern
       id="EMFhbasepattern-0"
       patternUnits="userSpaceOnUse"
       width="6"
       height="6"
       x="0"
       y="0" />
    <pattern
       id="EMFhbasepattern-7"
       patternUnits="userSpaceOnUse"
       width="6"
       height="6"
       x="0"
       y="0" />
    <pattern
       id="EMFhbasepattern-2"
       patternUnits="userSpaceOnUse"
       width="6"
       height="6"
       x="0"
       y="0" />
    <pattern
       id="EMFhbasepattern-98"
       patternUnits="userSpaceOnUse"
       width="6"
       height="6"
       x="0"
       y="0" />
    <pattern
       id="EMFhbasepattern-6"
       patternUnits="userSpaceOnUse"
       width="6"
       height="6"
       x="0"
       y="0" />
    <pattern
       id="EMFhbasepattern-01"
       patternUnits="userSpaceOnUse"
       width="6"
       height="6"
       x="0"
       y="0" />
    <pattern
       id="EMFhbasepattern-07"
       patternUnits="userSpaceOnUse"
       width="6"
       height="6"
       x="0"
       y="0" />
    <pattern
       id="EMFhbasepattern-8"
       patternUnits="userSpaceOnUse"
       width="6"
       height="6"
       x="0"
       y="0" />
    <pattern
       id="EMFhbasepattern-4"
       patternUnits="userSpaceOnUse"
       width="6"
       height="6"
       x="0"
       y="0" />
    <pattern
       id="EMFhbasepattern-40"
       patternUnits="userSpaceOnUse"
       width="6"
       height="6"
       x="0"
       y="0" />
    <pattern
       id="EMFhbasepattern-08"
       patternUnits="userSpaceOnUse"
       width="6"
       height="6"
       x="0"
       y="0" />
    <pattern
       id="EMFhbasepattern-04"
       patternUnits="userSpaceOnUse"
       width="6"
       height="6"
       x="0"
       y="0" />
    <pattern
       id="EMFhbasepattern-014"
       patternUnits="userSpaceOnUse"
       width="6"
       height="6"
       x="0"
       y="0" />
    <pattern
       id="EMFhbasepattern-27"
       patternUnits="userSpaceOnUse"
       width="6"
       height="6"
       x="0"
       y="0" />
    <pattern
       id="EMFhbasepattern-09"
       patternUnits="userSpaceOnUse"
       width="6"
       height="6"
       x="0"
       y="0" />
    <pattern
       id="EMFhbasepattern-5"
       patternUnits="userSpaceOnUse"
       width="6"
       height="6"
       x="0"
       y="0" />
    <pattern
       id="EMFhbasepattern-018"
       patternUnits="userSpaceOnUse"
       width="6"
       height="6"
       x="0"
       y="0" />
  </defs>
  <sodipodi:namedview
     id="base"
     pagecolor="#ffffff"
     bordercolor="#666666"
     borderopacity="1.0"
     inkscape:pageopacity="0.0"
     inkscape:pageshadow="2"
     inkscape:zoom="9.1757813"
     inkscape:cx="38.52533"
     inkscape:cy="42.666667"
     inkscape:document-units="pt"
     inkscape:current-layer="layer1"
     showgrid="false"
     units="pt"
     inkscape:window-width="1920"
     inkscape:window-height="1001"
     inkscape:window-x="-9"
     inkscape:window-y="-9"
     inkscape:window-maximized="1"
     inkscape:pagecheckerboard="true"
     inkscape:showpageshadow="false"
     inkscape:object-paths="true"
     inkscape:snap-intersection-paths="true"
     inkscape:snap-smooth-nodes="true"
     inkscape:snap-midpoints="true"
     showguides="true"
     inkscape:snap-bbox="true"
     inkscape:bbox-nodes="true"
     inkscape:snap-nodes="false"
     inkscape:snap-global="true"
     inkscape:snap-others="false">
    <inkscape:grid
       type="xygrid"
       id="grid1378" />
    <sodipodi:guide
       position="0.97013831,21.607643"
       orientation="78.000048,0"
       id="guide1380"
       inkscape:locked="false" />
    <sodipodi:guide
       position="0.97013831,0.97013129"
       orientation="0,78.000005"
       id="guide1382"
       inkscape:locked="false" />
    <sodipodi:guide
       position="21.607639,0.97013129"
       orientation="-78.000048,0"
       id="guide1384"
       inkscape:locked="false" />
    <sodipodi:guide
       position="21.607639,21.607643"
       orientation="0,-78.000005"
       id="guide1386"
       inkscape:locked="false" />
  </sodipodi:namedview>
  <metadata
     id="metadata828">
    <rdf:RDF>
      <cc:Work
         rdf:about="">
        <dc:format>image/svg+xml</dc:format>
        <dc:type
           rdf:resource="http://purl.org/dc/dcmitype/StillImage" />
      </cc:Work>
    </rdf:RDF>
  </metadata>
  <g
     inkscape:label="Icon"
     inkscape:groupmode="layer"
     id="layer1"
     transform="translate(0,-274.42223)">
    <g
       id="g2168"
       style="display:inline;stroke-width:0.794945"
       transform="matrix(1.2579485,0,0,1.2579485,77.37993,-38.878547)">
      <path
         style="color:#000000;fill:#ececec;stroke-width:0.794945;stroke-linecap:round;stroke-linejoin:round;-inkscape-stroke:none"
         d="m -55.246094,254.70117 c -0.476939,0 -0.869139,0.39221 -0.86914,0.86914 v 2.07813 a 0.26460996,0.26460996 0 0 0 0.263672,0.26562 h 6.625 a 0.26460996,0.26460996 0 0 0 0.263671,-0.26562 v -2.07813 c -10e-7,-0.47693 -0.392201,-0.86914 -0.86914,-0.86914 z"
         id="path162069" />
      <path
         id="path176187"
         style="color:#000000;fill:#cccccc;fill-opacity:1;stroke-width:3.00452;stroke-linecap:round;stroke-linejoin:round;-inkscape-stroke:none"
         d="m -208.80469,-95.869141 c -1.34736,0 -2.5153,0.828947 -3.01953,2 h 21.48242 c 1.80261,0 3.28516,1.482587 3.28516,3.285157 v 6.857422 h 1.00391 a 1.0001006,1.0001006 0 0 0 0.99609,-1.003907 v -7.853515 c 0,-1.80257 -1.48255,-3.285157 -3.28516,-3.285157 z"
         transform="matrix(0.26458334,0,0,0.26458334,0,280.06666)" />
      <path
         style="color:#000000;fill:#3a4d5c;stroke-width:0.794945;stroke-linecap:round;stroke-linejoin:round;-inkscape-stroke:none"
         d="m -52.539062,249.82812 a 0.2645835,0.2645835 0 0 0 -0.263672,0.26563 v 1.08203 a 0.2645835,0.2645835 0 0 0 0.263672,0.26563 0.2645835,0.2645835 0 0 0 0.263671,-0.26563 v -1.08203 a 0.2645835,0.2645835 0 0 0 -0.263671,-0.26563 z"
         id="path11679" />
      <path
         style="color:#000000;fill:#dc1c4b;stroke-width:0.794945;stroke-linecap:round;stroke-linejoin:round;-inkscape-stroke:none"
         d="m -52.539062,256.32617 c -0.502583,0 -0.901276,0.15775 -1.1875,0.40039 -0.286225,0.24264 -0.459053,0.55785 -0.564454,0.85938 -0.2108,0.60305 -0.167968,1.1875 -0.167968,1.1875 v 1.52343 a 0.26460996,0.26460996 0 0 0 0.263672,0.26368 h 3.3125 a 0.26460996,0.26460996 0 0 0 0.263671,-0.26368 v -1.52343 c 0,0 0.04283,-0.58445 -0.167968,-1.1875 -0.105401,-0.30153 -0.278229,-0.61674 -0.564453,-0.85938 -0.286225,-0.24264 -0.684918,-0.40039 -1.1875,-0.40039 z"
         id="path162079" />
      <path
         id="path187232"
         style="color:#000000;fill:#b01d47;fill-opacity:1;stroke-width:3.00452;stroke-linecap:round;stroke-linejoin:round;-inkscape-stroke:none"
         d="m -198.57227,-89.728516 c -1.89952,0 -3.40649,0.596608 -4.48828,1.513672 -1.08179,0.917065 -1.7364,2.108406 -2.13476,3.248047 -0.79673,2.279244 -0.63477,4.488281 -0.63477,4.488281 v 0.964844 c 0.0372,-0.857503 0.17658,-2.142355 0.63477,-3.453125 0.39836,-1.139641 1.05297,-2.330982 2.13476,-3.248047 1.08179,-0.917064 2.58876,-1.513672 4.48828,-1.513672 1.89953,0 3.40649,0.596608 4.48829,1.513672 1.08179,0.917065 1.73444,2.108406 2.13281,3.248047 0.44815,1.282075 0.5938,2.541482 0.63476,3.398438 v -0.910157 c 0,0 0.16195,-2.209037 -0.63476,-4.488281 -0.39837,-1.139641 -1.05102,-2.330982 -2.13281,-3.248047 -1.0818,-0.917064 -2.58876,-1.513672 -4.48829,-1.513672 z"
         transform="matrix(0.26458334,0,0,0.26458334,0,280.06666)" />
      <path
         style="color:#000000;fill:#dc1c4b;stroke-width:0.794945;stroke-linecap:round;stroke-linejoin:round;-inkscape-stroke:none"
         d="m -49.226562,256.32617 c -0.502583,0 -0.903229,0.15775 -1.189454,0.40039 -0.286225,0.24264 -0.457099,0.55785 -0.5625,0.85938 -0.210801,0.60305 -0.167968,1.1875 -0.167968,1.1875 l -0.002,-0.0176 v 1.39844 a 0.26460996,0.26460996 0 0 0 0.15625,0.24218 l 3.3125,1.49414 a 0.26460996,0.26460996 0 0 0 0.373046,-0.24023 v -2.87695 c 0,0 0.04283,-0.58445 -0.167968,-1.1875 -0.105401,-0.30153 -0.278229,-0.61674 -0.564453,-0.85938 -0.286225,-0.24264 -0.684918,-0.40039 -1.1875,-0.40039 z"
         id="path162085" />
      <path
         id="path188019"
         style="color:#000000;fill:#b01d47;fill-opacity:1;stroke-width:3.00452;stroke-linecap:round;stroke-linejoin:round;-inkscape-stroke:none"
         d="m -186.05273,-89.728516 c -1.89953,0 -3.4143,0.596608 -4.4961,1.513672 -0.52109,0.441742 -0.93945,0.94788 -1.27929,1.480469 0.9995,-0.615506 2.26496,-0.994141 3.77539,-0.994141 1.89952,0 3.40648,0.596608 4.48828,1.513672 1.08179,0.917065 1.73444,2.108406 2.13281,3.248047 0.79672,2.279244 0.63476,4.488281 0.63476,4.488281 v 9.515625 l 0.58985,0.265625 a 1.0001006,1.0001006 0 0 0 1.41015,-0.908203 v -10.873047 c 0,0 0.16196,-2.209037 -0.63476,-4.488281 -0.39837,-1.139641 -1.05102,-2.330982 -2.13281,-3.248047 -1.0818,-0.917064 -2.58876,-1.513672 -4.48828,-1.513672 z"
         transform="matrix(0.26458334,0,0,0.26458334,0,280.06666)" />
      <path
         style="color:#000000;fill:#dc1c4b;stroke-width:0.794945;stroke-linecap:round;stroke-linejoin:round;-inkscape-stroke:none"
         d="m -57.039062,256.72656 c -0.286225,0.24264 -0.459053,0.55785 -0.564454,0.85938 -0.2108,0.60305 -0.167968,1.1875 -0.167968,1.1875 v 2.87695 c 8.25e-4,0.19145 0.198408,0.31869 0.373047,0.24023 l 3.3125,-1.49414 c 0.09533,-0.0428 0.156556,-0.13768 0.15625,-0.24218 l -10e-4,-1.38964 c 0,0 0.04183,-0.57565 -0.168968,-1.1787 -0.105401,-0.30153 -0.276275,-0.61674 -0.5625,-0.85938 -0.286225,-0.24264 -0.686871,-0.40039 -1.18943,-0.4004 -0.50256,-1e-5 -0.901253,0.15774 -1.187477,0.40038 z"
         id="path162091"
         sodipodi:nodetypes="ssccccccsscs" />
      <path
         id="path177268"
         style="color:#000000;fill:#b01d47;fill-opacity:1;stroke-width:3.00452;stroke-linecap:round;stroke-linejoin:round;-inkscape-stroke:none"
         d="m -205.82812,-73.708984 1.4082,-0.634766 c 0.36104,-0.161463 0.59301,-0.520521 0.5918,-0.916016 l -0.004,-5.251953 c 0,0 0.15804,-2.175834 -0.63867,-4.455078 -0.39837,-1.139641 -1.04516,-2.330982 -2.12696,-3.248047 -1.08179,-0.917064 -2.59461,-1.513672 -4.49414,-1.513672 -1.89952,0 -3.40649,0.596608 -4.48828,1.513672 -0.52191,0.442441 -0.9452,0.948904 -1.28711,1.482422 0.99839,-0.617372 2.26239,-0.996094 3.77539,-0.996094 1.89953,0 3.41235,0.596608 4.49414,1.513672 1.0818,0.917065 1.72859,2.108406 2.12696,3.248047 0.79671,2.279244 0.63867,4.455078 0.63867,4.455078 z"
         transform="matrix(0.26458334,0,0,0.26458334,0,280.06666)"
         sodipodi:nodetypes="ccccsssscssscc" />
      <path
         style="color:#000000;fill:#3a4d5c;stroke-width:0.794945;stroke-linecap:round;stroke-linejoin:round;-inkscape-stroke:none"
         d="m -57.736328,261.07617 c -0.301517,0.13614 -0.473081,0.4639 -0.412109,0.78906 l 0.71916,3.8349 4.865936,0.14363 4.893736,-0.12667 0.722335,-3.85183 c 0.06097,-0.32516 -0.110572,-0.65293 -0.412109,-0.78906 l -5.070312,-2.29101 c -0.0695,-0.0315 -0.149246,-0.0315 -0.21875,0 z"
         id="path162097"
         sodipodi:nodetypes="cccccccccc" />
      <path
         style="color:#000000;fill:#ececec;stroke-width:0.794945;stroke-linecap:round;stroke-linejoin:round;-inkscape-stroke:none"
         d="m -53.621094,251.99414 c -0.442041,0 -0.80664,0.3646 -0.80664,0.80664 v 2.15234 a 0.26460996,0.26460996 0 0 0 0.263672,0.26563 h 3.25 a 0.26460996,0.26460996 0 0 0 0.263671,-0.26563 v -2.15234 c 0,-0.44204 -0.364599,-0.80664 -0.80664,-0.80664 z"
         id="path162103" />
      <path
         id="path165808"
         style="color:#000000;fill:#cccccc;fill-opacity:1;stroke-width:3.00452;stroke-linecap:round;stroke-linejoin:round;-inkscape-stroke:none"
         d="m -196.48242,-102.10156 c 1.6707,0 3.04883,1.37812 3.04883,3.048826 v 5.138672 h 1.00195 c 0.55303,-0.0011 1.00016,-0.450881 0.99805,-1.003907 v -8.134761 c 0,-1.67071 -1.37813,-3.04883 -3.04883,-3.04883 h -8.17969 c -1.67071,0 -3.04883,1.37812 -3.04883,3.04883 v 0.95117 z"
         transform="matrix(0.26458334,0,0,0.26458334,0,280.06666)"
         sodipodi:nodetypes="cscccsssscc" />
      <path
         id="path3277"
         style="color:#000000;fill:#801231;stroke-width:3.00452;stroke-linecap:round;stroke-linejoin:round;-inkscape-stroke:none"
         d="m -218.34961,-81.541016 c -0.0161,0.666573 0,1.333062 0,2 h 14.52149 c 2.5e-4,-0.825277 -0.006,-1.306489 -0.008,-2 z"
         transform="matrix(0.26458334,0,0,0.26458334,0,280.06666)"
         sodipodi:nodetypes="ccccc" />
      <path
         id="path173926"
         style="fill:#cccccc;fill-opacity:1;stroke-width:3.00452;stroke-linecap:round;stroke-linejoin:round"
         d="m -208.875,-95.867187 c -0.14696,0.323497 -0.1875,0.65857 -0.1875,1.001953 0,2.384995 1.96264,4.347656 4.34766,4.347656 h 12.2832 c 2.385,0 4.34766,-1.962661 4.34766,-4.347656 0,-0.343383 -0.0405,-0.678456 -0.1875,-1.001953 z"
         transform="matrix(0.26458334,0,0,0.26458334,0,280.06666)"
         sodipodi:nodetypes="csssscc" />
      <path
         style="color:#000000;fill:#3a4d5c;stroke-width:0.794945;stroke-linecap:round;stroke-linejoin:round;-inkscape-stroke:none"
         d="m -54.164062,254.16016 c -0.442034,0 -0.804688,0.36459 -0.804688,0.80664 0,0.44203 0.362654,0.80468 0.804688,0.80468 h 3.25 c 0.442032,0 0.804687,-0.36265 0.804687,-0.80468 0,-0.44205 -0.362655,-0.80664 -0.804687,-0.80664 z"
         id="path162113" />
      <path
         style="color:#000000;fill:#5aabdd;fill-opacity:1;stroke-width:0.420659;stroke-linecap:round;stroke-linejoin:round;stroke-miterlimit:4;stroke-dasharray:none"
         d="m -53.081453,253.071 a 0.27073687,0.27073687 0 0 0 -0.269804,0.2718 0.27073687,0.27073687 0 0 0 0.269804,0.2698 0.27073687,0.27073687 0 0 0 0.271803,-0.2698 0.27073687,0.27073687 0 0 0 -0.271803,-0.2718 z"
         id="path7361" />
      <path
         style="color:#000000;fill:#3a4d5c;stroke-width:0.794945;stroke-linecap:round;stroke-linejoin:round;-inkscape-stroke:none"
         d="m -54.705078,250.91211 c -0.292512,0 -0.535152,0.24265 -0.535156,0.53516 v 0.54101 c 4e-6,0.29251 0.242644,0.53516 0.535156,0.53516 h 4.332031 c 0.292512,0 0.535156,-0.24265 0.535156,-0.53516 v -0.54101 c 0,-0.29252 -0.242633,-0.53516 -0.535156,-0.53516 z"
         id="path162121" />
      <path
         style="color:#000000;fill:#aabfd0;stroke-width:0.794945;stroke-linecap:round;stroke-linejoin:round;-inkscape-stroke:none"
         d="m -54.001953,260.59766 -2.431641,1.09961 a 0.2645835,0.2645835 0 0 0 -0.132812,0.3496 0.2645835,0.2645835 0 0 0 0.349609,0.13282 l 2.433594,-1.09961 c 0.205449,-0.0928 0.417969,0.0461 0.417969,0.27148 v 1.62305 a 0.2645835,0.2645835 0 0 0 0.263672,0.26562 0.2645835,0.2645835 0 0 0 0.265625,-0.26562 v -1.62305 c 0,-0.58957 -0.628664,-0.99649 -1.166016,-0.7539 z"
         id="path8591" />
      <path
         id="path11429"
         style="color:#000000;fill:#801231;stroke-width:3.00452;stroke-linecap:round;stroke-linejoin:round;-inkscape-stroke:none"
         d="m -193.31055,-81.541016 c -0.005,0.843303 -0.006,1.177524 -0.006,2 h 14.51953 c 0.003,-0.697746 0.002,-1.467794 0.002,-2 z"
         transform="matrix(0.26458334,0,0,0.26458334,0,280.06666)"
         sodipodi:nodetypes="ccccc" />
      <path
         style="color:#000000;fill:#5aabdd;fill-opacity:1;stroke-width:0.420659;stroke-linecap:round;stroke-linejoin:round;stroke-miterlimit:4;stroke-dasharray:none"
         d="m -51.996645,253.071 c 0.149574,5.1e-4 0.270391,0.12223 0.269804,0.2718 -5.13e-4,0.14879 -0.121009,0.26929 -0.269804,0.2698 -0.149576,6e-4 -0.271288,-0.12022 -0.271803,-0.2698 -5.91e-4,-0.15036 0.121447,-0.27239 0.271803,-0.2718 z"
         id="path11433" />
      <path
         style="color:#000000;fill:#aabfd0;stroke-width:0.794945;stroke-linecap:round;stroke-linejoin:round;-inkscape-stroke:none"
         d="m -51.076172,260.59766 c -0.537352,-0.24259 -1.166015,0.16433 -1.166015,0.7539 v 1.62305 a 0.2645835,0.2645835 0 0 0 0.265625,0.26562 0.2645835,0.2645835 0 0 0 0.263671,-0.26562 v -1.62305 c 0,-0.22541 0.21252,-0.36423 0.417969,-0.27148 l 2.433594,1.09961 a 0.2645835,0.2645835 0 0 0 0.349609,-0.13282 0.2645835,0.2645835 0 0 0 -0.132812,-0.3496 z"
         id="path11437" />
      <path
         id="path194033"
         style="color:#000000;fill:#143441;fill-opacity:1;stroke-width:0.794945;stroke-linecap:round;stroke-linejoin:round;-inkscape-stroke:none"
         d="m -47.88855,261.07614 c 0.301535,0.13613 0.472829,0.46394 0.411861,0.7891 l -0.721921,3.85196 -4.611606,0.11937 0.247015,0.007 4.893757,-0.12661 0.721921,-3.85196 c 0.06097,-0.32516 -0.110326,-0.65297 -0.411861,-0.7891 z"
         sodipodi:nodetypes="ccccccccc" />
      <path
         style="color:#000000;fill:#7cb3f4;stroke-width:0.794945;stroke-linecap:round;stroke-linejoin:round;-inkscape-stroke:none"
         d="m -53.644483,265.94725 c 0.712661,0.19007 1.500683,0.1886 2.251953,-0.0117 0.579151,-0.15443 1.185574,-0.15484 1.832031,0.0176 0.727557,0.19402 1.438459,0.19402 2.166016,0 0.653161,-0.17419 1.26459,-0.19964 1.818359,-0.0215 l 0.894531,0.28711 c 0.13857,0.0443 0.286885,-0.0316 0.332032,-0.16992 0.04554,-0.13917 -0.03062,-0.28886 -0.169922,-0.33399 l -0.894531,-0.28711 c -0.675376,-0.21728 -1.396331,-0.17857 -2.117188,0.0137 -0.646464,0.17238 -1.248068,0.17238 -1.894531,0 -0.727562,-0.19405 -1.435061,-0.19582 -2.103516,-0.0176 -0.661963,0.17651 -1.360734,0.17648 -1.978515,0.0117 -0.707097,-0.18856 -1.416942,-0.18837 -2.144532,0.006 -0.646463,0.17238 -1.248068,0.17238 -1.894531,0 -0.727559,-0.19403 -1.435064,-0.19579 -2.103516,-0.0176 l -4.8e-5,-1.1e-4 c -0.0046,10e-4 -0.0091,0.003 -0.01367,0.004 l -0.894532,0.28907 c -0.138285,0.0451 -0.214187,0.19346 -0.169922,0.33203 0.0443,0.14008 0.194247,0.21725 0.333985,0.17187 l 0.880859,-0.28515 c 0.579157,-0.15441 1.183616,-0.15482 1.830078,0.0176 0.727556,0.19402 1.438459,0.19402 2.167016,0 0.647429,-0.17255 1.248747,-0.17208 1.872094,-0.006 z"
         id="path13632"
         sodipodi:nodetypes="cccsccccccccccccccccccccc" />
      <path
         id="path163890"
         style="color:#000000;fill:#143441;fill-opacity:1;stroke-width:0.794945;stroke-linecap:round;stroke-linejoin:round;-inkscape-stroke:none"
         d="m -50.902304,251.44153 c 0.292523,0 0.535368,0.24233 0.535368,0.53485 v 0.54106 c 0,0.002 2.4e-5,0.004 0,0.006 0.289735,-0.003 0.529167,-0.24493 0.529167,-0.53537 v -0.54105 c 0,-0.29252 -0.242845,-0.53485 -0.535369,-0.53485 l -4.332053,2e-4 c -0.290613,0 -0.531728,0.2392 -0.532,0.52916 z"
         sodipodi:nodetypes="ssscsscccs" />
      <path
         id="path167551"
         style="color:#000000;fill:#143441;fill-opacity:1;stroke-width:3.00452;stroke-linecap:round;stroke-linejoin:round;-inkscape-stroke:none"
         d="m -204.71484,-97.914062 c -1.30306,0 -2.42348,0.838367 -2.85352,2 h 13.13672 c 1.67067,0 3.04102,1.378087 3.04102,3.048828 0,0.314768 -0.0485,0.617989 -0.13868,0.904296 1.23543,-0.387036 2.13867,-1.546881 2.13868,-2.904296 0,-1.670741 -1.37035,-3.048828 -3.04102,-3.048828 z"
         transform="matrix(0.26458334,0,0,0.26458334,0,280.06666)" />
      <path
         id="path180824"
         style="color:#000000;fill:#700f2b;fill-opacity:1;stroke-width:3.00452;stroke-linecap:round;stroke-linejoin:round;-inkscape-stroke:none"
         d="m -206.08398,-81.541016 c 0.15718,0.770916 0.2221,1.462501 0.24609,2 h 2.00977 c -0.002,-0.805053 0.005,-1.228119 -0.01,-2 z"
         transform="matrix(0.26458334,0,0,0.26458334,0,280.06666)"
         sodipodi:nodetypes="ccccc" />
      <path
         id="path188923"
         style="color:#000000;fill:#700f2b;fill-opacity:1;stroke-width:3.00452;stroke-linecap:round;stroke-linejoin:round;-inkscape-stroke:none"
         d="m -181.04492,-81.541016 c 0.15718,0.770916 0.2221,1.462501 0.24609,2 h 2.00195 v -0.9375 c 0,0 0.008,-0.144189 0.0117,-0.333984 7.7e-4,-0.04151 0.002,-0.09409 0.002,-0.142578 2.8e-4,-0.0811 -0.002,-0.168541 -0.004,-0.267578 -7.6e-4,-0.0403 -7e-4,-0.08391 -0.002,-0.126953 -0.002,-0.05824 -0.007,-0.128462 -0.01,-0.191407 z"
         transform="matrix(0.26458334,0,0,0.26458334,0,280.06666)" />
      <path
         id="path191341"
         style="color:#000000;fill:#143441;fill-opacity:1;stroke-width:0.794945;stroke-linecap:round;stroke-linejoin:round;-inkscape-stroke:none"
         d="m -52.648468,258.7853 -5.088062,2.29082 c -0.301517,0.13614 -0.472832,0.46394 -0.411861,0.7891 l 0.02946,0.15813 c 0.06409,-0.18108 0.198861,-0.33519 0.382405,-0.41807 l 5.088062,-2.29081 c 0.0695,-0.0315 0.149093,-0.0315 0.218591,0 l 5.070493,2.29081 c 0.183187,0.0827 0.318159,0.23643 0.382405,0.41703 l 0.02946,-0.15709 c 0.06097,-0.32516 -0.110326,-0.65297 -0.411861,-0.7891 l -5.070493,-2.29082 c -0.07172,-0.0275 -0.156123,-0.024 -0.218599,0 z"
         sodipodi:nodetypes="cccccccccsccc" />
      <path
         id="path511779"
         style="color:#000000;fill:#143441;fill-opacity:1;stroke-width:3.00452;stroke-linecap:round;stroke-linejoin:round;-inkscape-stroke:none"
         d="m -202.74981,-55.365237 c 2.69352,0.718374 5.67032,0.71407 8.50977,-0.04297 2.18891,-0.583673 4.48247,-0.585336 6.92578,0.06641 2.45971,0.655939 4.86732,0.722611 7.3164,0.205078 l -0.84371,-1.820726 c -1.24607,0.331618 -3.52153,0.331618 -5.96485,-0.319897 -1.37492,-0.366708 -2.73056,-0.551395 -4.05859,-0.560547 -1.32804,-0.0092 -2.62741,0.157347 -3.89063,0.494141 -2.50191,0.667124 -5.14359,0.667712 -7.47852,0.04492 -2.67249,-0.712668 -5.35552,-0.711189 -8.10546,0.02344 -2.44333,0.651515 -4.77388,0.651515 -7.27688,-0.01465 l 0.40166,2.139647 c 2.47188,0.532869 4.90288,0.470445 7.38876,-0.191406 2.4472,-0.652157 4.72031,-0.651141 7.07627,-0.02344 z"
         transform="matrix(0.26458334,0,0,0.26458334,0,280.06666)"
         sodipodi:nodetypes="ccccccsccccccc" />
    </g>
  </g>
</svg>
