<?xml version="1.0" standalone="no"?>
<!DOCTYPE svg PUBLIC "-//W3C//DTD SVG 20010904//EN"
 "http://www.w3.org/TR/2001/REC-SVG-20010904/DTD/svg10.dtd">
<svg version="1.0" xmlns="http://www.w3.org/2000/svg"
 width="60.000000pt" height="30.000000pt" viewBox="0 0 60.000000 30.000000"
 preserveAspectRatio="xMidYMid meet">

<g transform="translate(0.000000,30.000000) scale(0.100000,-0.100000)"
fill="#000000" stroke="none">
<path d="M300 293 c-73 -8 -157 -44 -209 -88 -29 -25 -61 -45 -72 -45 -10 0
-19 -4 -19 -10 0 -5 9 -10 21 -10 11 0 42 -18 67 -41 87 -76 131 -92 271 -97
99 -4 122 -2 116 8 -6 10 -2 11 16 5 13 -4 43 -10 67 -12 l42 -5 -1 48 c0 36
-3 43 -9 29 -6 -17 -9 -14 -15 18 -8 41 0 61 15 37 8 -12 10 -11 10 6 0 12 -7
24 -15 28 -15 5 -18 43 -6 81 4 13 8 4 12 -30 6 -48 6 -47 5 15 l-1 65 -130 1
c-72 1 -146 -1 -165 -3z m89 -39 c-15 -18 -35 -18 -42 0 -8 19 -1 24 28 18 20
-3 23 -7 14 -18z m-129 -25 c0 -14 -16 -11 -29 5 -10 12 -8 13 8 9 12 -3 21
-9 21 -14z m-73 5 c-3 -3 -12 -4 -19 -1 -8 3 -5 6 6 6 11 1 17 -2 13 -5z m143
-108 c0 -59 -2 -67 -15 -56 -11 9 -12 17 -4 32 7 13 9 42 5 72 -5 36 -3 47 4
36 5 -8 10 -46 10 -84z m98 16 c3 -61 2 -63 -20 -60 -20 3 -23 10 -26 52 -4
60 3 78 25 74 15 -3 19 -16 21 -66z m95 16 c7 -21 -4 -38 -23 -38 -23 0 -34
16 -26 35 7 18 43 20 49 3z m-343 -18 c0 -5 -2 -10 -4 -10 -3 0 -8 5 -11 10
-3 6 -1 10 4 10 6 0 11 -4 11 -10z m190 -36 c0 -8 -4 -12 -10 -9 -5 3 -10 13
-10 21 0 8 5 12 10 9 6 -3 10 -13 10 -21z m-130 -44 c8 -5 11 -10 5 -10 -5 0
-17 5 -25 10 -8 5 -10 10 -5 10 6 0 17 -5 25 -10z"/>
</g>
</svg>
