<?xml version="1.0" standalone="no"?>
<!DOCTYPE svg PUBLIC "-//W3C//DTD SVG 20010904//EN"
 "http://www.w3.org/TR/2001/REC-SVG-20010904/DTD/svg10.dtd">
<svg version="1.0" xmlns="http://www.w3.org/2000/svg"
 width="90.000000pt" height="30.000000pt" viewBox="0 0 90.000000 30.000000"
 preserveAspectRatio="xMidYMid meet">

<g transform="translate(0.000000,30.000000) scale(0.100000,-0.100000)"
fill="#000000" stroke="none">
<path d="M240 281 c-63 -22 -89 -38 -137 -82 -30 -27 -52 -39 -73 -39 -16 0
-30 -4 -30 -10 0 -5 15 -10 34 -10 26 0 43 -9 76 -41 23 -23 71 -54 106 -70
59 -27 73 -29 182 -29 72 0 122 4 129 11 8 8 17 8 30 0 11 -5 87 -10 176 -10
l157 0 -1 102 c-1 78 -3 92 -9 62 -4 -22 -5 -45 -3 -52 3 -7 0 -13 -6 -13 -6
0 -12 14 -12 30 -4 92 -3 104 9 108 6 2 12 -5 13 -15 0 -16 1 -16 8 2 4 11 5
31 1 45 l-6 25 -300 1 c-254 1 -306 -1 -344 -15z m224 -16 c-7 -18 -26 -19
-42 -3 -9 9 -12 9 -12 -1 0 -15 -52 -11 -57 4 -2 6 22 11 57 12 48 2 58 0 54
-12z m214 -4 c3 -10 -3 -12 -29 -6 -25 4 -30 3 -19 -4 12 -8 12 -13 2 -23 -6
-6 -12 -20 -12 -31 0 -10 -4 -16 -8 -13 -5 3 -9 26 -10 51 l0 46 36 -3 c19 -2
37 -9 40 -17z m-377 -6 c19 -9 59 -29 89 -46 30 -17 73 -40 96 -52 l41 -22
-32 -21 -32 -21 -61 36 c-34 19 -62 42 -62 50 0 17 -29 51 -44 51 -6 0 -22 9
-36 20 -31 25 -8 27 41 5z m-46 -21 c19 -16 19 -16 -5 -9 -14 4 -32 11 -40 16
-12 7 -11 8 5 8 11 0 29 -7 40 -15z m221 -35 l19 -22 -32 17 c-35 18 -41 26
-20 26 8 0 22 -10 33 -21z m228 15 c12 -5 16 -21 16 -70 0 -57 -2 -64 -20 -64
-18 0 -20 7 -20 70 0 39 2 70 4 70 2 0 11 -3 20 -6z m-559 -31 c-22 -16 -35
-17 -35 -3 0 6 7 10 15 10 8 0 15 5 15 11 0 5 5 7 12 3 7 -5 5 -11 -7 -21z
m681 5 c4 -6 2 -14 -4 -16 -7 -2 -12 -12 -12 -22 0 -26 -19 -35 -37 -17 -19
18 -9 37 19 37 14 0 18 5 14 15 -6 18 10 20 20 3z m-222 -14 c11 -4 16 -20 16
-53 1 -25 7 -57 15 -71 20 -34 19 -35 -15 -38 -16 -1 -30 2 -30 8 0 5 3 10 8
10 6 0 7 38 3 82 -1 4 -16 14 -33 22 -18 8 -42 21 -53 30 -19 15 -18 15 27 16
25 0 53 -3 62 -6z m-414 -95 c25 -22 36 -36 25 -32 -29 12 -105 64 -105 73 0
16 36 -3 80 -41z m200 31 l35 -19 -42 -1 c-36 0 -43 3 -43 20 0 24 5 24 50 0z
m-42 -39 c3 -8 -1 -12 -9 -9 -7 2 -15 10 -17 17 -3 8 1 12 9 9 7 -2 15 -10 17
-17z m-67 -8 c12 -15 12 -16 -4 -10 -10 4 -23 7 -28 7 -5 0 -9 5 -9 10 0 16
26 12 41 -7z m594 -3 c3 -5 1 -10 -4 -10 -6 0 -11 5 -11 10 0 6 2 10 4 10 3 0
8 -4 11 -10z m-406 -24 c17 -20 -9 -27 -56 -14 -60 16 -63 28 -6 28 31 0 55
-5 62 -14z m-139 -6 c8 -5 11 -12 7 -16 -4 -4 -15 0 -24 9 -18 18 -8 23 17 7z
m394 -19 c-2 -3 -12 3 -22 13 -16 17 -16 18 5 5 12 -7 20 -15 17 -18z"/>
</g>
</svg>
