<?xml version="1.0" standalone="no"?>
<!DOCTYPE svg PUBLIC "-//W3C//DTD SVG 20010904//EN"
 "http://www.w3.org/TR/2001/REC-SVG-20010904/DTD/svg10.dtd">
<svg version="1.0" xmlns="http://www.w3.org/2000/svg"
 width="120.000000pt" height="30.000000pt" viewBox="0 0 120.000000 30.000000"
 preserveAspectRatio="xMidYMid meet">

<g transform="translate(0.000000,30.000000) scale(0.100000,-0.100000)"
fill="#000000" stroke="none">
<path d="M305 293 c-61 -13 -99 -42 -57 -44 14 0 14 -2 -3 -9 -30 -13 -38 -12
-31 5 3 8 2 15 -3 15 -9 0 -88 -56 -109 -77 -7 -7 -29 -13 -48 -13 -19 0 -34
-4 -34 -10 0 -5 14 -10 32 -10 22 0 45 -12 79 -40 99 -83 147 -98 344 -102
100 -2 129 0 128 9 -4 20 56 20 68 1 3 -5 32 -11 63 -13 47 -3 57 -1 52 11 -3
8 1 14 9 14 8 0 15 -6 15 -14 0 -10 23 -13 105 -13 95 0 133 9 88 20 -17 4
-17 4 0 12 9 4 29 4 45 0 l27 -8 -25 -7 c-14 -5 -23 -9 -20 -10 16 -7 90 -9
118 -5 l33 6 -3 142 -3 142 -425 1 c-234 1 -434 0 -445 -3z m405 -24 c0 -11
-3 -11 -24 -3 -23 9 -20 23 4 17 11 -3 20 -9 20 -14z m260 11 c4 0 10 -7 14
-15 5 -14 2 -13 -24 0 -21 11 -30 12 -30 4 0 -7 -3 -10 -6 -6 -11 10 8 29 23
23 8 -3 18 -6 23 -6z m-338 -22 c-7 -7 -12 -8 -12 -2 0 14 12 26 19 19 2 -3
-1 -11 -7 -17z m-199 1 c-8 -8 -16 -8 -30 0 -16 9 -14 10 12 11 21 0 26 -3 18
-11z m257 -8 c0 -5 -9 -7 -20 -4 -11 3 -20 7 -20 9 0 2 9 4 20 4 11 0 20 -4
20 -9z m200 -11 c0 -5 -4 -10 -10 -10 -5 0 -10 5 -10 10 0 6 5 10 10 10 6 0
10 -4 10 -10z m230 -5 c0 -21 -27 -30 -46 -15 -12 11 -12 15 -2 21 21 14 48
10 48 -6z m50 -28 c0 -18 -4 -38 -9 -46 -7 -11 -11 -10 -20 7 -7 14 -8 23 -1
27 5 3 10 17 10 31 0 14 4 22 10 19 6 -3 10 -21 10 -38z m-803 22 c6 -6 34
-11 63 -11 37 1 56 -4 70 -18 11 -11 29 -17 45 -16 17 2 30 -3 38 -15 7 -11
20 -19 29 -19 18 0 42 -33 31 -43 -3 -4 0 -13 7 -22 15 -18 7 -30 -15 -22 -8
4 -15 15 -15 25 0 29 -22 42 -79 45 -44 3 -51 1 -51 -15 0 -23 -2 -23 -46 7
-42 29 -59 26 -23 -4 l24 -20 -31 1 c-17 1 -36 -2 -42 -6 -14 -9 -26 12 -15
27 9 11 9 22 5 69 -1 9 -9 24 -18 32 -12 13 -12 16 -2 16 8 0 19 -5 25 -11z
m275 -2 c-6 -7 -9 -23 -5 -35 4 -18 2 -21 -11 -16 -19 7 -19 6 -6 38 5 14 15
26 21 26 8 0 8 -4 1 -13z m98 -78 c0 -57 -1 -60 -22 -57 -23 3 -25 17 -19 126
1 10 6 10 21 2 17 -9 20 -21 20 -71z m-566 56 c4 -10 -1 -15 -14 -15 -13 0
-18 5 -14 15 4 8 10 15 14 15 4 0 10 -7 14 -15z m810 0 c22 -1 57 -3 76 -4 33
-3 33 -4 10 -11 -14 -4 -52 -8 -86 -9 -63 -1 -103 -19 -90 -40 5 -7 15 -10 24
-6 19 7 122 -22 122 -35 0 -6 -33 -10 -76 -10 -48 0 -73 4 -69 10 3 6 -1 13
-9 16 -10 4 -16 19 -16 41 0 26 4 34 14 30 8 -3 16 2 19 14 4 13 10 17 22 12
10 -3 36 -7 59 -8z m-134 -15 c0 -5 -4 -10 -10 -10 -5 0 -10 5 -10 10 0 6 5
10 10 10 6 0 10 -4 10 -10z m-22 -38 c3 -16 -2 -22 -17 -22 -24 0 -35 15 -27
36 9 23 40 13 44 -14z m287 8 c4 -6 4 -17 1 -25 -4 -12 -10 -11 -37 2 -29 15
-31 17 -13 24 27 11 42 10 49 -1z m-95 -4 c0 -2 -9 -6 -20 -9 -11 -3 -18 -1
-14 4 5 9 34 13 34 5z m-693 -28 c-3 -8 -6 -5 -6 6 -1 11 2 17 5 13 3 -3 4
-12 1 -19z m-155 -13 c0 -5 -5 -11 -10 -13 -5 -1 -9 4 -9 13 0 9 4 14 9 13 5
-2 10 -8 10 -13z m996 -2 c6 -19 -25 -16 -32 3 -4 11 -1 14 11 12 9 -2 18 -9
21 -15z m-78 -3 c0 -5 -6 -10 -14 -10 -8 0 -18 5 -21 10 -3 6 3 10 14 10 12 0
21 -4 21 -10z m-719 -46 c24 -14 35 -23 24 -19 -11 4 -35 11 -52 17 -18 5 -33
13 -33 18 0 16 15 12 61 -16z m749 6 c0 -11 -3 -20 -7 -20 -20 0 -53 13 -53
20 0 7 10 11 53 19 4 0 7 -8 7 -19z m-630 -25 c11 -13 8 -13 -19 -4 -35 12
-40 19 -12 19 10 0 24 -7 31 -15z"/>
<path d="M628 13 c6 -2 18 -2 25 0 6 3 1 5 -13 5 -14 0 -19 -2 -12 -5z"/>
</g>
</svg>
